<svg xmlns="http://www.w3.org/2000/svg" viewBox="0 0 600 650" role="img" aria-label="Dozy Coffee"><path fill="#3B251C" d="M348,18 L385,18 L385,19 L395,19 L395,20 L401,20 L401,21 L406,21 L406,22 L411,22 L411,23 L414,23 L414,24 L418,24 L418,25 L421,25 L421,26 L427,27 L427,28 L429,28 L429,29 L431,29 L431,30 L433,30 L433,31 L439,33 L440,35 L442,35 L444,38 L446,38 L446,39 L451,43 L451,45 L454,47 L454,49 L455,49 L455,51 L456,51 L456,53 L457,53 L457,56 L458,56 L458,59 L459,59 L459,74 L458,74 L457,81 L456,81 L456,83 L455,83 L455,86 L454,86 L453,90 L451,91 L450,95 L448,96 L448,98 L445,100 L445,102 L439,107 L439,109 L438,109 L438,110 L437,110 L437,111 L436,111 L436,112 L435,112 L430,118 L428,118 L424,123 L422,123 L419,127 L417,127 L417,128 L416,128 L415,130 L413,130 L411,133 L409,133 L408,135 L406,135 L405,137 L403,137 L402,139 L400,139 L399,141 L397,141 L397,142 L394,143 L393,145 L391,145 L391,146 L387,147 L386,149 L382,150 L381,152 L379,152 L379,153 L377,153 L377,154 L371,156 L370,158 L368,158 L368,159 L366,159 L366,160 L364,160 L364,161 L362,161 L362,162 L360,162 L360,163 L358,163 L358,164 L356,164 L356,165 L354,165 L354,166 L352,166 L352,167 L350,167 L350,168 L348,168 L348,169 L346,169 L346,170 L343,170 L343,171 L341,171 L341,172 L339,172 L339,173 L337,173 L337,174 L335,174 L335,175 L332,175 L332,176 L330,176 L330,177 L327,177 L327,178 L322,179 L322,180 L320,180 L320,181 L317,181 L317,182 L315,182 L315,183 L312,183 L312,184 L309,184 L309,185 L306,185 L306,186 L303,186 L303,187 L300,187 L300,188 L297,188 L297,189 L294,189 L294,190 L290,190 L290,191 L287,191 L287,192 L284,192 L284,193 L280,193 L280,194 L276,194 L276,195 L272,195 L272,196 L268,196 L268,197 L264,197 L264,198 L260,198 L260,199 L256,199 L256,200 L251,200 L251,201 L247,201 L247,202 L242,202 L242,203 L238,203 L238,204 L233,204 L233,205 L229,205 L229,206 L224,206 L224,207 L220,207 L220,208 L216,208 L216,209 L212,209 L212,210 L208,210 L208,211 L200,212 L200,213 L197,213 L197,214 L194,214 L194,215 L191,215 L191,216 L185,217 L185,218 L183,218 L183,219 L180,219 L180,220 L178,220 L178,221 L175,221 L175,222 L173,222 L173,223 L171,223 L171,224 L169,224 L169,225 L167,225 L167,226 L161,228 L160,230 L156,231 L156,232 L153,233 L151,236 L149,236 L146,240 L144,240 L144,241 L143,241 L143,242 L142,242 L142,243 L136,248 L136,250 L135,250 L135,251 L133,252 L133,254 L131,255 L131,257 L130,257 L130,259 L129,259 L129,261 L128,261 L128,263 L127,263 L126,269 L125,269 L125,284 L126,284 L127,290 L129,291 L129,293 L131,294 L131,296 L132,296 L133,298 L135,298 L137,301 L139,301 L139,302 L141,302 L141,303 L143,303 L143,304 L146,304 L146,305 L149,305 L149,306 L154,306 L154,307 L173,307 L173,306 L179,306 L179,305 L184,305 L184,304 L188,304 L188,303 L196,302 L196,301 L199,301 L199,300 L202,300 L202,299 L205,299 L205,298 L211,297 L211,296 L213,296 L213,295 L219,294 L219,293 L221,293 L221,292 L224,292 L224,291 L226,291 L226,290 L228,290 L228,289 L231,289 L231,288 L233,288 L233,287 L236,287 L236,286 L238,286 L238,285 L241,285 L241,284 L243,284 L243,283 L246,283 L246,282 L248,282 L248,281 L250,281 L250,280 L253,280 L253,279 L255,279 L255,278 L258,278 L258,277 L261,277 L261,276 L263,276 L263,275 L269,274 L269,273 L271,273 L271,272 L274,272 L274,271 L277,271 L277,270 L280,270 L280,269 L284,269 L284,268 L287,268 L287,267 L291,267 L291,266 L302,265 L302,264 L313,264 L313,265 L317,265 L317,266 L319,266 L319,267 L321,267 L321,268 L323,269 L324,274 L325,274 L325,278 L324,278 L324,282 L323,282 L323,284 L322,284 L320,290 L316,293 L316,295 L315,295 L315,296 L314,296 L314,297 L313,297 L313,298 L312,298 L312,299 L311,299 L311,300 L310,300 L310,301 L309,301 L309,302 L308,302 L303,308 L301,308 L296,314 L294,314 L291,318 L289,318 L286,322 L284,322 L282,325 L280,325 L280,326 L279,326 L278,328 L276,328 L274,331 L272,331 L271,333 L269,333 L269,334 L268,334 L267,336 L265,336 L263,339 L261,339 L260,341 L258,341 L257,343 L255,343 L253,346 L251,346 L250,348 L248,348 L247,350 L245,350 L244,352 L242,352 L241,354 L239,354 L238,356 L236,356 L235,358 L233,358 L232,360 L230,360 L228,363 L226,363 L225,365 L223,365 L222,367 L220,367 L219,369 L217,369 L215,372 L213,372 L212,374 L210,374 L210,375 L207,377 L206,377 L205,379 L203,379 L201,382 L199,382 L197,385 L195,385 L195,386 L194,386 L192,389 L190,389 L188,392 L186,392 L183,396 L181,396 L176,402 L174,402 L174,403 L173,403 L173,404 L172,404 L172,405 L171,405 L171,406 L170,406 L170,407 L169,407 L169,408 L168,408 L168,409 L167,409 L167,410 L166,410 L166,411 L165,411 L165,412 L164,412 L164,413 L163,413 L163,414 L162,414 L162,415 L161,415 L161,416 L160,416 L160,417 L159,417 L159,418 L158,418 L158,419 L157,419 L157,420 L156,420 L156,421 L155,421 L155,422 L149,427 L149,429 L144,433 L144,435 L141,437 L141,439 L140,439 L140,440 L138,441 L138,443 L135,445 L135,447 L133,448 L133,450 L132,450 L131,453 L129,454 L128,458 L126,459 L125,463 L123,464 L121,470 L119,471 L119,473 L118,473 L118,475 L117,475 L117,477 L116,477 L116,479 L115,479 L115,481 L114,481 L114,483 L113,483 L113,485 L112,485 L112,488 L111,488 L111,490 L110,490 L110,492 L109,492 L109,495 L108,495 L108,497 L107,497 L107,499 L106,499 L106,502 L105,502 L105,504 L104,504 L104,507 L103,507 L103,509 L102,509 L102,512 L101,512 L101,514 L100,514 L100,517 L99,517 L99,519 L98,519 L98,521 L97,521 L97,524 L96,524 L96,526 L95,526 L95,528 L94,528 L92,534 L91,534 L90,537 L87,539 L87,541 L86,541 L85,543 L83,543 L82,545 L78,546 L78,547 L73,547 L73,548 L72,548 L72,547 L64,546 L63,544 L61,544 L60,542 L58,542 L58,541 L52,536 L52,534 L49,532 L49,530 L48,530 L47,527 L45,526 L45,524 L44,524 L44,522 L43,522 L43,520 L42,520 L42,518 L41,518 L41,516 L40,516 L40,513 L39,513 L39,511 L38,511 L38,508 L37,508 L37,505 L36,505 L36,502 L35,502 L35,498 L34,498 L34,495 L33,495 L33,491 L32,491 L32,486 L31,486 L31,481 L30,481 L30,475 L29,475 L29,469 L28,469 L27,449 L26,449 L25,406 L26,406 L26,384 L27,384 L27,371 L28,371 L29,351 L30,351 L30,344 L31,344 L31,336 L32,336 L32,329 L33,329 L33,323 L34,323 L35,311 L36,311 L37,301 L38,301 L38,297 L39,297 L39,292 L40,292 L40,287 L41,287 L41,283 L42,283 L42,279 L43,279 L43,275 L44,275 L45,267 L46,267 L46,264 L47,264 L48,256 L49,256 L49,253 L50,253 L50,249 L51,249 L51,246 L52,246 L52,243 L53,243 L53,240 L54,240 L54,237 L55,237 L55,234 L56,234 L56,231 L57,231 L58,225 L59,225 L59,223 L60,223 L60,220 L61,220 L61,218 L62,218 L62,215 L63,215 L63,213 L64,213 L64,210 L65,210 L65,208 L66,208 L66,206 L67,206 L67,203 L68,203 L68,201 L69,201 L69,199 L70,199 L70,197 L71,197 L71,195 L72,195 L72,193 L73,193 L73,191 L74,191 L76,185 L78,184 L79,180 L81,179 L82,175 L84,174 L84,172 L85,172 L85,170 L87,169 L87,167 L89,166 L89,164 L92,162 L92,160 L95,158 L95,156 L96,156 L96,155 L98,154 L98,152 L101,150 L101,148 L106,144 L106,142 L107,142 L107,141 L108,141 L108,140 L114,135 L114,133 L115,133 L115,132 L116,132 L116,131 L117,131 L117,130 L118,130 L118,129 L119,129 L119,128 L120,128 L120,127 L121,127 L121,126 L122,126 L122,125 L123,125 L123,124 L124,124 L124,123 L125,123 L125,122 L126,122 L126,121 L127,121 L127,120 L128,120 L133,114 L135,114 L135,113 L136,113 L136,112 L137,112 L142,106 L144,106 L148,101 L150,101 L153,97 L155,97 L157,94 L159,94 L161,91 L163,91 L163,90 L164,90 L165,88 L167,88 L169,85 L171,85 L172,83 L174,83 L175,81 L177,81 L178,79 L180,79 L181,77 L183,77 L183,76 L186,75 L187,73 L191,72 L192,70 L196,69 L197,67 L203,65 L204,63 L206,63 L206,62 L208,62 L208,61 L210,61 L210,60 L212,60 L212,59 L214,59 L214,58 L216,58 L216,57 L218,57 L218,56 L220,56 L220,55 L222,55 L222,54 L224,54 L224,53 L226,53 L226,52 L228,52 L228,51 L230,51 L230,50 L232,50 L232,49 L234,49 L234,48 L237,48 L237,47 L239,47 L239,46 L241,46 L241,45 L244,45 L244,44 L249,43 L249,42 L251,42 L251,41 L257,40 L257,39 L259,39 L259,38 L262,38 L262,37 L265,37 L265,36 L268,36 L268,35 L271,35 L271,34 L274,34 L274,33 L277,33 L277,32 L280,32 L280,31 L284,31 L284,30 L287,30 L287,29 L291,29 L291,28 L295,28 L295,27 L303,26 L303,25 L308,25 L308,24 L318,23 L318,22 L324,22 L324,21 L330,21 L330,20 L337,20 L337,19 L348,19 L348,18 Z M497,96 L510,96 L510,97 L513,97 L513,98 L517,99 L518,101 L520,101 L520,102 L521,102 L521,103 L522,103 L522,104 L523,104 L523,105 L524,105 L524,106 L525,106 L525,107 L526,107 L526,108 L527,108 L527,109 L533,114 L533,116 L536,118 L536,120 L538,121 L538,123 L540,124 L540,126 L541,126 L542,129 L544,130 L544,132 L545,132 L545,134 L546,134 L546,136 L547,136 L547,138 L548,138 L548,140 L549,140 L549,142 L550,142 L550,144 L551,144 L551,146 L552,146 L552,148 L553,148 L553,150 L554,150 L554,153 L555,153 L555,155 L556,155 L556,157 L557,157 L558,163 L559,163 L559,165 L560,165 L560,168 L561,168 L561,171 L562,171 L562,174 L563,174 L563,177 L564,177 L564,181 L565,181 L565,184 L566,184 L566,188 L567,188 L567,192 L568,192 L568,196 L569,196 L569,201 L570,201 L570,205 L571,205 L571,211 L572,211 L572,217 L573,217 L573,223 L574,223 L574,231 L575,231 L575,241 L576,241 L576,267 L577,267 L577,270 L576,270 L576,273 L577,273 L577,274 L576,274 L576,291 L575,291 L575,302 L574,302 L574,310 L573,310 L573,316 L572,316 L572,323 L571,323 L571,328 L570,328 L570,333 L569,333 L569,337 L568,337 L568,342 L567,342 L567,346 L566,346 L566,350 L565,350 L565,354 L564,354 L564,357 L563,357 L563,361 L562,361 L562,364 L561,364 L561,368 L560,368 L559,374 L558,374 L558,376 L557,376 L557,379 L556,379 L555,385 L554,385 L554,387 L553,387 L553,390 L552,390 L552,393 L551,393 L551,395 L550,395 L550,397 L549,397 L549,400 L548,400 L548,402 L547,402 L547,405 L546,405 L546,407 L545,407 L545,409 L544,409 L544,411 L543,411 L543,413 L542,413 L542,415 L541,415 L541,418 L540,418 L538,424 L536,425 L536,427 L535,427 L535,429 L534,429 L534,431 L533,431 L531,437 L529,438 L527,444 L525,445 L524,449 L523,449 L522,452 L520,453 L520,455 L519,455 L519,457 L517,458 L517,460 L515,461 L515,463 L512,465 L512,467 L510,468 L510,470 L507,472 L507,474 L504,476 L504,478 L501,480 L501,482 L497,485 L497,487 L496,487 L496,488 L491,492 L491,494 L490,494 L490,495 L484,500 L484,502 L483,502 L483,503 L482,503 L482,504 L481,504 L481,505 L480,505 L480,506 L479,506 L479,507 L478,507 L478,508 L477,508 L477,509 L476,509 L476,510 L475,510 L475,511 L474,511 L474,512 L473,512 L473,513 L472,513 L472,514 L471,514 L471,515 L470,515 L470,516 L469,516 L469,517 L468,517 L468,518 L467,518 L462,524 L460,524 L460,525 L459,525 L459,526 L458,526 L453,532 L451,532 L447,537 L445,537 L442,541 L440,541 L437,545 L435,545 L435,546 L434,546 L433,548 L431,548 L429,551 L427,551 L426,553 L424,553 L422,556 L420,556 L419,558 L417,558 L416,560 L414,560 L413,562 L411,562 L410,564 L408,564 L408,565 L405,566 L404,568 L400,569 L399,571 L395,572 L394,574 L390,575 L389,577 L387,577 L387,578 L381,580 L380,582 L378,582 L378,583 L376,583 L376,584 L374,584 L374,585 L372,585 L372,586 L370,586 L370,587 L368,587 L368,588 L366,588 L366,589 L364,589 L364,590 L362,590 L362,591 L360,591 L360,592 L358,592 L358,593 L356,593 L356,594 L354,594 L354,595 L352,595 L352,596 L349,596 L349,597 L347,597 L347,598 L345,598 L345,599 L343,599 L343,600 L340,600 L340,601 L338,601 L338,602 L335,602 L335,603 L330,604 L330,605 L328,605 L328,606 L325,606 L325,607 L323,607 L323,608 L320,608 L320,609 L314,610 L314,611 L312,611 L312,612 L305,613 L305,614 L302,614 L302,615 L299,615 L299,616 L296,616 L296,617 L288,618 L288,619 L281,620 L281,621 L277,621 L277,622 L267,623 L267,624 L263,624 L263,625 L250,626 L250,627 L242,627 L242,628 L231,628 L231,629 L200,629 L200,628 L189,628 L189,627 L182,627 L182,626 L172,625 L172,624 L164,623 L164,622 L157,621 L157,620 L155,620 L155,619 L149,618 L149,617 L147,617 L147,616 L145,616 L145,615 L143,615 L143,614 L137,612 L136,610 L134,610 L133,608 L131,608 L129,605 L127,605 L127,604 L122,600 L122,598 L119,596 L119,594 L118,594 L118,592 L117,592 L117,590 L116,590 L115,584 L114,584 L114,568 L115,568 L115,564 L116,564 L117,558 L118,558 L120,552 L122,551 L123,547 L124,547 L124,546 L126,545 L126,543 L129,541 L129,539 L130,539 L130,538 L131,538 L131,537 L132,537 L132,536 L133,536 L133,535 L134,535 L134,534 L135,534 L135,533 L136,533 L136,532 L137,532 L142,526 L144,526 L148,521 L150,521 L150,520 L152,519 L153,519 L154,517 L156,517 L157,515 L159,515 L160,513 L162,513 L163,511 L165,511 L165,510 L171,508 L172,506 L175,506 L175,505 L177,505 L177,504 L179,504 L179,503 L181,503 L181,502 L183,502 L183,501 L185,501 L185,500 L188,500 L188,499 L190,499 L190,498 L193,498 L193,497 L195,497 L195,496 L198,496 L198,495 L201,495 L201,494 L204,494 L204,493 L207,493 L207,492 L210,492 L210,491 L214,491 L214,490 L221,489 L221,488 L225,488 L225,487 L229,487 L229,486 L234,486 L234,485 L239,485 L239,484 L244,484 L244,483 L250,483 L250,482 L264,481 L264,480 L284,479 L284,478 L298,478 L298,477 L312,477 L312,476 L330,476 L330,475 L348,475 L348,474 L350,475 L350,474 L375,473 L375,472 L390,471 L390,470 L396,470 L396,469 L401,469 L401,468 L405,468 L405,467 L413,466 L413,465 L416,465 L416,464 L419,464 L419,463 L425,462 L425,461 L427,461 L427,460 L430,460 L430,459 L432,459 L432,458 L434,458 L434,457 L440,455 L441,453 L443,453 L444,451 L446,451 L447,449 L449,449 L454,443 L456,443 L456,442 L459,440 L459,438 L463,435 L464,431 L466,430 L466,428 L467,428 L467,426 L468,426 L469,418 L470,418 L470,409 L469,409 L469,405 L468,405 L467,401 L465,400 L465,398 L464,398 L462,395 L460,395 L460,394 L457,393 L456,391 L453,391 L453,390 L450,390 L450,389 L446,389 L446,388 L430,387 L430,388 L417,389 L417,390 L413,390 L413,391 L405,392 L405,393 L402,393 L402,394 L398,394 L398,395 L395,395 L395,396 L392,396 L392,397 L389,397 L389,398 L386,398 L386,399 L383,399 L383,400 L380,400 L380,401 L377,401 L377,402 L374,402 L374,403 L371,403 L371,404 L368,404 L368,405 L365,405 L365,406 L362,406 L362,407 L359,407 L359,408 L356,408 L356,409 L353,409 L353,410 L349,410 L349,411 L346,411 L346,412 L338,413 L338,414 L335,414 L335,415 L326,416 L326,417 L321,417 L321,418 L315,418 L315,419 L303,419 L303,420 L293,420 L293,419 L288,419 L288,418 L285,418 L285,417 L281,416 L280,414 L278,414 L277,411 L276,411 L276,409 L275,409 L275,400 L276,400 L276,397 L277,397 L279,391 L280,391 L281,388 L284,386 L284,384 L285,384 L285,383 L286,383 L286,382 L287,382 L287,381 L288,381 L288,380 L289,380 L289,379 L290,379 L290,378 L291,378 L291,377 L292,377 L292,376 L293,376 L293,375 L294,375 L294,374 L295,374 L295,373 L296,373 L296,372 L297,372 L302,366 L304,366 L304,365 L305,365 L310,359 L312,359 L312,358 L313,358 L316,354 L318,354 L322,349 L324,349 L327,345 L329,345 L334,339 L336,339 L339,335 L341,335 L341,334 L342,334 L347,328 L349,328 L353,323 L355,323 L355,322 L356,322 L356,321 L357,321 L357,320 L358,320 L358,319 L359,319 L364,313 L366,313 L366,312 L367,312 L367,311 L368,311 L368,310 L369,310 L369,309 L370,309 L370,308 L371,308 L371,307 L372,307 L372,306 L373,306 L373,305 L374,305 L374,304 L375,304 L375,303 L376,303 L376,302 L377,302 L377,301 L378,301 L378,300 L379,300 L379,299 L380,299 L380,298 L381,298 L381,297 L382,297 L382,296 L383,296 L383,295 L389,290 L389,288 L390,288 L390,287 L391,287 L391,286 L397,281 L397,279 L401,276 L401,274 L405,271 L405,269 L406,269 L406,268 L408,267 L408,265 L411,263 L411,261 L413,260 L413,258 L415,257 L415,255 L417,254 L417,252 L418,252 L419,249 L421,248 L422,244 L424,243 L424,241 L425,241 L425,239 L426,239 L428,233 L430,232 L431,227 L432,227 L432,225 L433,225 L433,223 L434,223 L434,221 L435,221 L435,218 L436,218 L436,216 L437,216 L437,213 L438,213 L438,211 L439,211 L439,208 L440,208 L440,205 L441,205 L441,202 L442,202 L442,199 L443,199 L443,196 L444,196 L444,193 L445,193 L445,189 L446,189 L446,186 L447,186 L447,182 L448,182 L448,179 L449,179 L449,176 L450,176 L450,172 L451,172 L451,169 L452,169 L452,166 L453,166 L453,163 L454,163 L454,160 L455,160 L456,154 L457,154 L457,152 L458,152 L458,149 L459,149 L459,147 L460,147 L460,144 L461,144 L461,142 L462,142 L462,140 L463,140 L463,137 L464,137 L464,135 L465,135 L465,133 L466,133 L466,131 L467,131 L469,125 L471,124 L472,120 L474,119 L474,117 L476,116 L476,114 L478,113 L478,111 L479,111 L479,110 L480,110 L480,109 L481,109 L481,108 L482,108 L482,107 L483,107 L483,106 L484,106 L489,100 L491,100 L491,99 L493,99 L493,98 L495,98 L495,97 L497,97 L497,96 Z"/></svg>